<svg width="24" height="24" viewBox="0 0 24 24" fill="none" xmlns="http://www.w3.org/2000/svg">
<path d="M17.1143 15.3582C16.8437 15.6642 16.5596 15.9665 16.2625 16.2635C11.9668 20.5593 6.58487 22.1422 4.24173 19.7991C2.63532 18.1926 2.87422 15.158 4.56749 12.0242M6.88869 8.72526C7.1704 8.40495 7.46674 8.08875 7.77726 7.77824C12.073 3.48247 17.4549 1.89956 19.7981 4.2427C21.4056 5.85021 21.1653 8.88795 19.4688 12.024M16.2625 7.77824C20.5583 12.074 22.1412 17.4559 19.7981 19.7991C17.4549 22.1422 12.073 20.5593 7.77726 16.2635C3.48149 11.9678 1.89858 6.58585 4.24173 4.2427C6.58487 1.89956 11.9668 3.48247 16.2625 7.77824ZM12.9991 12C12.9991 12.5523 12.5514 13 11.9991 13C11.4468 13 10.9991 12.5523 10.9991 12C10.9991 11.4477 11.4468 11 11.9991 11C12.5514 11 12.9991 11.4477 12.9991 12Z" stroke="#151A1A" stroke-width="1.5" stroke-linecap="round" stroke-linejoin="round"/>
</svg>
