<svg width="24" height="24" viewBox="0 0 24 24" fill="none" xmlns="http://www.w3.org/2000/svg">
<g id="AXA" clip-path="url(#clip0_2405_110276)">
<g id="Group 3">
<path id="Vector" d="M24 24H0V21.543H0.526508L1.05302 21.4991L1.18464 21.2797L1.7989 20.4461L3.37843 18.3839L3.86106 17.7697H7.41499L7.59049 18.3839L7.766 19.0859L7.80987 19.1737L7.50274 19.5247C7.02417 20.2319 6.48068 20.8929 5.87934 21.4991L6.71298 21.543H7.54662L7.67825 21.2797C7.85169 20.9422 8.0734 20.6318 8.33638 20.3583C8.47858 20.7267 8.58152 21.1091 8.64351 21.4991L9.52102 21.543H10.3547L10.3985 21.4991C10.5073 21.3125 10.6097 21.1222 10.7057 20.9287L11.1883 20.4022C11.32 20.7709 11.4084 21.1538 11.4516 21.543C12.183 21.542 12.9144 21.5274 13.6453 21.4991L13.5137 21.2797C13.2505 20.7971 13.2943 20.841 12.7678 19.2614L12.5484 18.5155L12.8117 18.1207L13.1188 17.7697H16.6728L16.936 18.6033C17.1973 19.5653 17.4459 20.5306 17.6819 21.4991L18.8227 21.543C19.1889 21.5043 19.5546 21.4604 19.9196 21.4113L19.4369 20.2706C18.588 17.7275 17.8415 15.1514 17.1993 12.5484H15.4004L15.3126 12.6801L14.9177 13.3821L12.1097 17.1115L11.8464 16.1901C12.8125 14.9652 13.7925 13.7512 14.7861 12.5484H12.9872L12.9433 12.5923V12.6801C12.8995 12.8995 12.8556 13.0311 12.6801 13.2505L11.2761 15.0055L11.1883 14.7861C11.0165 14.0686 10.841 13.3519 10.6618 12.6362V12.5484H8.46801L8.51188 12.6801C8.99595 13.9512 9.43498 15.239 9.82815 16.5411L9.25777 17.287C8.81167 15.831 8.3875 14.3683 7.98537 12.8995L7.9415 12.5923V12.5484H6.05484L5.87934 12.9433L5.57221 13.5137C4.60864 14.8928 3.59893 16.2391 2.54479 17.5503C1.72865 18.6315 0.894899 19.6992 0.0438757 20.7532H0V0H22.596L15.2249 9.5649C14.6459 10.3337 14.0754 11.1088 13.5137 11.8903H14.8739L16.8483 9.34552L18.2523 7.50274L24 0V24ZM9.87203 19.2176L9.69653 18.6033L10.2669 17.8574L10.3547 17.989L10.6618 18.8665L10.7057 18.9543L10.6179 19.0859L10.0914 19.7879L9.87203 19.2176ZM4.73857 16.6289C5.17431 16.0707 5.61307 15.515 6.05484 14.9616C6.19829 14.7647 6.33014 14.5596 6.44973 14.3473V14.5229L6.4936 14.83C6.63568 15.4389 6.81145 16.0395 7.02011 16.6289C6.25978 16.6521 5.49891 16.6521 4.73857 16.6289ZM13.9963 16.6289C14.7422 15.7075 15.3565 14.9177 15.5759 14.5229L15.6636 14.3473L15.7075 14.5667V14.8739C15.8595 15.4657 16.0352 16.0511 16.234 16.6289H16.2779H13.9525H13.9963Z" fill="#103083"/>
<path id="Vector_2" d="M14.9161 12.0219L13.1172 11.9781L22.5505 0H23.9984L14.9161 12.0219Z" fill="#FC1721"/>
</g>
</g>
<defs>
<clipPath id="clip0_2405_110276">
<rect width="24" height="24" fill="white"/>
</clipPath>
</defs>
</svg>
