<svg width="24" height="24" viewBox="0 0 24 24" fill="none" xmlns="http://www.w3.org/2000/svg">
<path d="M15.6469 18.0148C16.0757 19.6152 15.126 21.2602 13.5256 21.689C11.9252 22.1178 10.2802 21.1681 9.85134 19.5677M2.05781 11.6133C1.66832 10.2151 2.07336 8.70349 3.10976 7.68738M12.1473 5.74085C12.4515 5.19355 12.5517 4.53205 12.3768 3.87945C12.0195 2.54579 10.6486 1.75433 9.31498 2.11168C7.98131 2.46904 7.18986 3.83988 7.54721 5.17355C7.72207 5.82614 8.13961 6.34891 8.67671 6.67079M20.32 6.72C19.9582 5.31439 18.8516 4.20779 17.446 3.84602M17.4916 9.44528C17.1347 8.11315 16.1817 6.99919 14.8425 6.34845C13.5032 5.69772 11.8873 5.56352 10.3502 5.97538C8.81312 6.38724 7.48079 7.31142 6.64631 8.54461C5.81183 9.77779 5.54355 11.219 5.9005 12.5511C6.49107 14.7552 6.3764 16.5135 6.00344 17.8497C5.57838 19.3725 5.36584 20.134 5.42326 20.2869C5.48895 20.4618 5.53647 20.5098 5.7107 20.5773C5.863 20.6363 6.50277 20.4649 7.78231 20.122L19.6474 16.9428C20.9269 16.5999 21.5667 16.4285 21.6691 16.3013C21.7862 16.1557 21.8034 16.0904 21.7728 15.906C21.7461 15.7449 21.1813 15.1918 20.0517 14.0855C19.0607 13.1148 18.0822 11.6493 17.4916 9.44528Z" stroke="#151A1A" stroke-width="1.5" stroke-linecap="round" stroke-linejoin="round"/>
</svg>
