<svg width="41" height="40" viewBox="0 0 41 40" fill="none" xmlns="http://www.w3.org/2000/svg">
<g id="Blood Bag">
<path id="Vector" d="M25.5508 30.8333H26.5508C28.4364 30.8333 29.3792 30.8333 29.965 30.2475C30.5508 29.6618 30.5508 28.719 30.5508 26.8333V10.6667C30.5508 8.78105 30.5508 7.83824 29.965 7.25245C29.3792 6.66667 28.4364 6.66667 26.5508 6.66667H25.366C24.8563 6.66667 24.6015 6.66667 24.3648 6.60807C24.0981 6.54204 23.8478 6.42176 23.6296 6.25472C23.436 6.10648 23.2768 5.90749 22.9584 5.50951V5.50951C22.1883 4.54689 21.8032 4.06558 21.3493 3.86791C20.8401 3.64611 20.2615 3.64611 19.7522 3.86791C19.2983 4.06558 18.9133 4.54689 18.1432 5.50951V5.50951C17.8248 5.90749 17.6656 6.10648 17.472 6.25472C17.2538 6.42176 17.0035 6.54204 16.7368 6.60807C16.5001 6.66667 16.2452 6.66667 15.7356 6.66667H14.5508C12.6652 6.66667 11.7224 6.66667 11.1366 7.25245C10.5508 7.83824 10.5508 8.78105 10.5508 10.6667V26.8333C10.5508 28.719 10.5508 29.6618 11.1366 30.2475C11.7224 30.8333 12.6652 30.8333 14.5508 30.8333H15.5508M25.5508 30.8333V32.0833C25.5508 32.5585 25.5489 33.0576 25.0363 33.2699C24.8832 33.3333 24.6891 33.3333 24.3008 33.3333H16.8008C16.4125 33.3333 16.2184 33.3333 16.0652 33.2699C15.5527 33.0576 15.5508 32.5585 15.5508 32.0833V30.8333M25.5508 30.8333H15.5508" stroke="#3F4040" stroke-width="1.5"/>
<path id="Vector_2" d="M20.5508 35.834V33.334" stroke="#3F4040" stroke-width="1.5" stroke-linecap="round"/>
<path id="Vector_3" d="M10.5508 24.9995C14.0282 25.8496 16.24 25.8496 19.7174 24.9995C22.125 24.411 23.0766 22.354 25.5508 22.4995C27.7301 22.6277 28.8841 24.9995 30.5508 24.9995" stroke="#3F4040" stroke-width="1.5" stroke-linecap="round"/>
</g>
</svg>
