<svg width="25" height="24" viewBox="0 0 25 24" fill="none" xmlns="http://www.w3.org/2000/svg">
<g id="Body">
<path id="Vector" d="M6.33203 8C4.83203 8 4.83203 10 6.33203 10L8.33255 10C8.88483 10 9.33203 10.4445 9.33203 10.9968V20.5C9.33203 22 11.332 22 11.332 20.5C11.332 19 11.332 16 12.332 16C13.332 16 13.332 19 13.332 20.5C13.332 22 15.332 22 15.332 20.5V11C15.332 10.4477 15.7797 10 16.332 10H18.332C19.832 10 19.832 8 18.332 8H6.33203Z" stroke="#9B59B6" stroke-width="1.5" stroke-linecap="round"/>
<path id="Vector_2" d="M14.332 4.5C14.332 5.60457 13.4366 6.5 12.332 6.5C11.2275 6.5 10.332 5.60457 10.332 4.5C10.332 3.39543 11.2275 2.5 12.332 2.5C13.4366 2.5 14.332 3.39543 14.332 4.5Z" stroke="#9B59B6" stroke-width="1.5"/>
</g>
</svg>
