<svg width="41" height="40" viewBox="0 0 41 40" fill="none" xmlns="http://www.w3.org/2000/svg">
<g id="Body">
<path id="Vector" d="M10.4492 13.334C7.94922 13.334 7.94922 16.6673 10.4492 16.6673L13.7834 16.6673C14.7039 16.6673 15.4492 17.4081 15.4492 18.3286V34.1673C15.4492 36.6673 18.7826 36.6673 18.7826 34.1673C18.7826 31.6673 18.7826 26.6673 20.4492 26.6673C22.1159 26.6673 22.1159 31.6673 22.1159 34.1673C22.1159 36.6673 25.4492 36.6673 25.4492 34.1673V18.334C25.4492 17.4135 26.1954 16.6673 27.1159 16.6673H30.4492C32.9492 16.6673 32.9492 13.334 30.4492 13.334H10.4492Z" stroke="#3F4040" stroke-width="1.5" stroke-linecap="round"/>
<path id="Vector_2" d="M23.7839 7.49935C23.7839 9.3403 22.2915 10.8327 20.4505 10.8327C18.6096 10.8327 17.1172 9.3403 17.1172 7.49935C17.1172 5.6584 18.6096 4.16602 20.4505 4.16602C22.2915 4.16602 23.7839 5.6584 23.7839 7.49935Z" stroke="#3F4040" stroke-width="1.5"/>
</g>
</svg>
