<svg width="41" height="40" viewBox="0 0 41 40" fill="none" xmlns="http://www.w3.org/2000/svg">
<g id="Brain">
<g id="Left">
<path id="Vector" d="M18.3822 35.8333V8.33333C18.3822 7.22222 18.5488 5 15.8822 5C13.2533 5 12.6977 8.11004 14.2155 9.4245M18.3822 35.8333C15.4073 35.8333 14.4237 33.1784 15.4312 31.4227M13.1555 7.3556C12.3999 7.21768 11.6187 7.29744 10.8811 7.58782C10.1435 7.87821 9.47226 8.37025 8.9269 9.02037C8.38153 9.67048 7.97885 10.4586 7.75451 11.3149C7.53017 12.1712 7.4911 13.0693 7.64076 13.9296C7.79043 14.7899 8.12421 15.5858 8.61253 16.2469C9.10086 16.908 9.72866 17.4139 10.4403 17.7197M10.4073 28.3907C10.1598 28.87 10.0367 29.4227 10.0489 30C10.061 30.5772 10.2081 31.1612 10.477 31.7001C10.746 32.2391 11.1285 32.7164 11.5907 33.0897C12.0528 33.4631 12.5805 33.721 13.1268 33.8406C13.6731 33.9602 14.2212 33.9378 14.7226 33.7754M8.63376 16.6287C8.15666 16.6827 7.70298 16.8684 7.3129 17.1694C6.92282 17.4704 6.60839 17.8775 6.39745 18.3545C6.18652 18.8315 6.08559 19.3638 6.10361 19.9041C6.12164 20.4445 6.25805 20.9763 6.50077 21.4524C6.74349 21.9284 7.08503 22.3342 7.49513 22.6336C7.90523 22.9329 8.37124 23.1168 8.85187 23.1688M7.93594 23.0701C7.46556 23.3923 7.08202 23.8257 6.81929 24.3319C6.55656 24.8381 6.42275 25.4015 6.42971 25.972C6.43667 26.5426 6.58419 27.1028 6.8592 27.603C7.13421 28.1032 7.52822 28.528 8.00634 28.8397C8.48445 29.1514 9.03191 29.3405 9.60021 29.3901" stroke="#3F4040" stroke-width="1.5" stroke-linecap="round"/>
<path id="Vector_2" d="M12.773 20.5157C13.2717 20.5344 13.7667 20.4121 14.2141 20.1596C14.6616 19.9071 15.0478 19.5323 15.3384 19.0683C15.629 18.6043 15.8152 18.0654 15.8803 17.4995C15.9454 16.9335 15.8875 16.3579 15.7118 15.8237C15.536 15.2894 15.2478 14.813 14.8727 14.4367" stroke="#3F4040" stroke-width="1.5" stroke-linecap="round" stroke-linejoin="round"/>
<path id="Vector_3" d="M18.311 24.9072C17.7917 24.9078 17.292 25.0266 16.8564 25.2532C16.4207 25.4798 16.0624 25.8072 15.8134 26.2063C15.5643 26.6055 15.432 27.0641 15.4283 27.5415" stroke="#3F4040" stroke-width="1.5" stroke-linecap="round" stroke-linejoin="round"/>
<path id="Vector_4" d="M10.9783 23.9517C11.2624 23.9485 11.5345 24.0179 11.7705 24.1536C12.0065 24.2893 12.199 24.4872 12.3311 24.7298C12.4632 24.9724 12.5308 25.2522 12.5278 25.5444" stroke="#3F4040" stroke-width="1.5" stroke-linecap="round" stroke-linejoin="round"/>
<path id="Vector_5" d="M12.5496 11.6674C12.3448 11.6042 12.1259 11.5999 11.9122 11.6549C11.6985 11.7099 11.4966 11.8225 11.3245 11.9827C11.1523 12.1429 11.0152 12.3457 10.9253 12.5733C10.8354 12.8008 10.7954 13.046 10.8089 13.2872C10.8225 13.5283 10.8891 13.758 11.0028 13.9558" stroke="#3F4040" stroke-width="1.5" stroke-linecap="round" stroke-linejoin="round"/>
</g>
<g id="Right">
<path id="Vector_6" d="M21.7194 35.8333V8.33333C21.7194 7.22222 21.5527 5 24.2194 5C26.8191 5 27.3913 8.04139 25.9358 9.38008M21.7194 35.8333C24.6942 35.8333 25.6779 33.1784 24.6704 31.4227M26.946 7.3556C27.7017 7.21767 28.4829 7.29744 29.2205 7.58782C29.9581 7.87821 30.6293 8.37025 31.1747 9.02037C31.72 9.67048 32.1227 10.4586 32.3471 11.3149C32.5714 12.1712 32.6105 13.0693 32.4608 13.9296C32.3111 14.7899 31.9774 15.5858 31.489 16.2469C31.0007 16.908 30.3729 17.4139 29.6612 17.7197M29.6944 28.3907C29.9418 28.87 30.0649 29.4227 30.0528 30C30.0406 30.5772 29.8935 31.1612 29.6246 31.7001C29.3557 32.2391 28.9732 32.7164 28.511 33.0897C28.0488 33.4631 27.5212 33.721 26.9749 33.8406C26.4286 33.9602 25.8804 33.9378 25.379 33.7754M31.4678 16.6287C31.9449 16.6827 32.3986 16.8684 32.7887 17.1694C33.1787 17.4704 33.4932 17.8775 33.7041 18.3545C33.915 18.8315 34.016 19.3638 33.9979 19.9041C33.9799 20.4445 33.8435 20.9763 33.6008 21.4524C33.3581 21.9284 33.0165 22.3342 32.6064 22.6336C32.1963 22.9329 31.7303 23.1168 31.2497 23.1688M32.1656 23.0701C32.636 23.3923 33.0195 23.8257 33.2823 24.3319C33.545 24.8381 33.6788 25.4015 33.6719 25.972C33.6649 26.5426 33.5174 27.1028 33.2424 27.603C32.9674 28.1032 32.5733 28.528 32.0952 28.8397C31.6171 29.1514 31.0697 29.3405 30.5014 29.3901" stroke="#3F4040" stroke-width="1.5" stroke-linecap="round"/>
<path id="Vector_7" d="M28.1981 20.1102C27.7096 20.2122 27.2011 20.1745 26.7177 20.0005C26.2342 19.8265 25.7907 19.5216 25.4265 19.1128C25.0623 18.704 24.7886 18.204 24.6296 17.6569C24.4706 17.1098 24.4313 16.5327 24.5151 15.9765" stroke="#3F4040" stroke-width="1.5" stroke-linecap="round" stroke-linejoin="round"/>
<path id="Vector_8" d="M25.7115 27.8334C26.2304 27.8114 26.7247 27.672 27.1507 27.4277C27.5766 27.1833 27.921 26.8414 28.1534 26.4323C28.3858 26.0232 28.499 25.5596 28.483 25.0824" stroke="#3F4040" stroke-width="1.5" stroke-linecap="round" stroke-linejoin="round"/>
<path id="Vector_9" d="M24.7749 22.6219C24.6703 22.8861 24.6378 23.165 24.6802 23.4339C24.7225 23.7028 24.8385 23.9534 25.0179 24.1635C25.1972 24.3736 25.4343 24.5367 25.7083 24.6384" stroke="#3F4040" stroke-width="1.5" stroke-linecap="round" stroke-linejoin="round"/>
<path id="Vector_10" d="M27.878 12.2568C28.0743 12.3428 28.2429 12.4826 28.3687 12.6639C28.4945 12.8452 28.5737 13.0623 28.5994 13.296C28.625 13.5297 28.5962 13.7729 28.5156 14.0039C28.435 14.2349 28.305 14.4466 28.1372 14.6203C27.9693 14.794 27.7688 14.9244 27.5534 14.9998" stroke="#3F4040" stroke-width="1.5" stroke-linecap="round" stroke-linejoin="round"/>
</g>
</g>
</svg>
