<svg width="16" height="16" viewBox="0 0 16 16" fill="none" xmlns="http://www.w3.org/2000/svg">
<g id="briefcase-01">
<path id="Icon" d="M10.6654 4.66667C10.6654 4.04669 10.6654 3.7367 10.5972 3.48236C10.4123 2.79218 9.87319 2.25308 9.183 2.06815C8.92867 2 8.61868 2 7.9987 2C7.37872 2 7.06873 2 6.81439 2.06815C6.12421 2.25308 5.58511 2.79218 5.40018 3.48236C5.33203 3.7367 5.33203 4.04669 5.33203 4.66667M3.46536 14H12.532C13.2788 14 13.6521 14 13.9374 13.8547C14.1882 13.7268 14.3922 13.5229 14.52 13.272C14.6654 12.9868 14.6654 12.6134 14.6654 11.8667V6.8C14.6654 6.05326 14.6654 5.6799 14.52 5.39468C14.3922 5.1438 14.1882 4.93982 13.9374 4.81199C13.6521 4.66667 13.2788 4.66667 12.532 4.66667H3.46536C2.71863 4.66667 2.34526 4.66667 2.06004 4.81199C1.80916 4.93982 1.60519 5.1438 1.47736 5.39468C1.33203 5.6799 1.33203 6.05326 1.33203 6.8V11.8667C1.33203 12.6134 1.33203 12.9868 1.47736 13.272C1.60519 13.5229 1.80916 13.7268 2.06004 13.8547C2.34526 14 2.71863 14 3.46536 14Z" stroke="#727776" stroke-width="1.5" stroke-linecap="round" stroke-linejoin="round"/>
</g>
</svg>
