<svg width="20" height="20" viewBox="0 0 20 20" fill="none" xmlns="http://www.w3.org/2000/svg">
<g id="clipboard-plus">
<path id="Icon" d="M13.332 3.33268C14.107 3.33268 14.4945 3.33268 14.8124 3.41787C15.6751 3.64904 16.349 4.3229 16.5802 5.18564C16.6654 5.50355 16.6654 5.89104 16.6654 6.66602V14.3327C16.6654 15.7328 16.6654 16.4329 16.3929 16.9677C16.1532 17.4381 15.7707 17.8205 15.3003 18.0602C14.7656 18.3327 14.0655 18.3327 12.6654 18.3327H7.33203C5.9319 18.3327 5.23183 18.3327 4.69705 18.0602C4.22665 17.8205 3.8442 17.4381 3.60451 16.9677C3.33203 16.4329 3.33203 15.7328 3.33203 14.3327V6.66602C3.33203 5.89104 3.33203 5.50355 3.41722 5.18564C3.64838 4.3229 4.32225 3.64904 5.18498 3.41787C5.5029 3.33268 5.89039 3.33268 6.66536 3.33268M9.9987 14.166V9.16602M7.4987 11.666H12.4987M7.9987 4.99935H11.9987C12.4654 4.99935 12.6988 4.99935 12.877 4.90852C13.0338 4.82863 13.1613 4.70114 13.2412 4.54434C13.332 4.36608 13.332 4.13273 13.332 3.66602V2.99935C13.332 2.53264 13.332 2.29928 13.2412 2.12102C13.1613 1.96422 13.0338 1.83674 12.877 1.75684C12.6988 1.66602 12.4654 1.66602 11.9987 1.66602H7.9987C7.53199 1.66602 7.29863 1.66602 7.12037 1.75684C6.96357 1.83674 6.83609 1.96422 6.75619 2.12102C6.66536 2.29928 6.66536 2.53264 6.66536 2.99935V3.66602C6.66536 4.13273 6.66536 4.36608 6.75619 4.54434C6.83609 4.70114 6.96357 4.82863 7.12037 4.90852C7.29863 4.99935 7.53199 4.99935 7.9987 4.99935Z" stroke="#AF7AC5" stroke-linecap="round" stroke-linejoin="round"/>
</g>
</svg>
