<svg width="16" height="16" viewBox="0 0 16 16" fill="none" xmlns="http://www.w3.org/2000/svg">
<g id="coins-stacked-03">
<path id="Icon" d="M8.66536 3.33333C8.66536 4.06971 7.02374 4.66667 4.9987 4.66667C2.97365 4.66667 1.33203 4.06971 1.33203 3.33333M8.66536 3.33333C8.66536 2.59695 7.02374 2 4.9987 2C2.97365 2 1.33203 2.59695 1.33203 3.33333M8.66536 3.33333V4.33333M1.33203 3.33333V11.3333C1.33203 12.0697 2.97365 12.6667 4.9987 12.6667M4.9987 7.33333C4.88633 7.33333 4.77515 7.3315 4.66536 7.3279C2.79653 7.26666 1.33203 6.69552 1.33203 6M4.9987 10C2.97365 10 1.33203 9.40305 1.33203 8.66667M14.6654 7.66667C14.6654 8.40305 13.0237 9 10.9987 9C8.97365 9 7.33203 8.40305 7.33203 7.66667M14.6654 7.66667C14.6654 6.93029 13.0237 6.33333 10.9987 6.33333C8.97365 6.33333 7.33203 6.93029 7.33203 7.66667M14.6654 7.66667V12.6667C14.6654 13.403 13.0237 14 10.9987 14C8.97365 14 7.33203 13.403 7.33203 12.6667V7.66667M14.6654 10.1667C14.6654 10.903 13.0237 11.5 10.9987 11.5C8.97365 11.5 7.33203 10.903 7.33203 10.1667" stroke="#727776" stroke-width="1.2" stroke-linecap="round" stroke-linejoin="round"/>
</g>
</svg>
