<svg width="38" height="33" viewBox="0 0 38 33" fill="none" xmlns="http://www.w3.org/2000/svg">
<g id="Group">
<path id="Vector" d="M6.87109 6.42382C16.4511 -3.25311 27.8511 2.12072 32.1111 6.42382" stroke="#3F4040" stroke-width="1.2" stroke-miterlimit="10" stroke-linecap="round" stroke-linejoin="round"/>
<path id="Vector_2" d="M2.43359 12.0391C13.2936 28.908 30.1936 24.8676 36.8136 12.0391" stroke="#3F4040" stroke-width="1.2" stroke-miterlimit="10" stroke-linecap="round" stroke-linejoin="round"/>
<path id="Vector_3" d="M2.43359 12.0391C13.2936 28.908 30.1936 24.8676 36.8136 12.0391" stroke="#3F4040" stroke-width="1.2" stroke-miterlimit="10" stroke-linecap="round" stroke-linejoin="round"/>
<g id="Group_2">
<g id="Group_3">
<path id="Vector_4" d="M4.41016 9.87891C4.97016 10.7678 5.57016 11.5759 6.17016 12.3436" stroke="#3F4040" stroke-width="1.2" stroke-linecap="round" stroke-linejoin="round"/>
<path id="Vector_5" d="M8.73047 15.1112C16.6105 22.3436 26.2505 20.586 32.0705 13.9395" stroke="#3F4040" stroke-width="1.2" stroke-linecap="round" stroke-linejoin="round" stroke-dasharray="2.81 2.81"/>
<path id="Vector_6" d="M33.25 12.4648C33.83 11.6567 34.35 10.8082 34.83 9.87891" stroke="#3F4040" stroke-width="1.2" stroke-linecap="round" stroke-linejoin="round"/>
</g>
</g>
<path id="Vector_7" d="M7.49156 18.1016L1.35156 24.6067" stroke="#3F4040" stroke-width="1.2" stroke-miterlimit="10" stroke-linecap="round" stroke-linejoin="round"/>
<path id="Vector_8" d="M12.7906 21.6562L9.39062 29.717" stroke="#3F4040" stroke-width="1.2" stroke-miterlimit="10" stroke-linecap="round" stroke-linejoin="round"/>
<path id="Vector_9" d="M19.4922 23.2324V32.0002" stroke="#3F4040" stroke-width="1.2" stroke-miterlimit="10" stroke-linecap="round" stroke-linejoin="round"/>
<path id="Vector_10" d="M25.6719 22.2012L29.6519 29.7165" stroke="#3F4040" stroke-width="1.2" stroke-miterlimit="10" stroke-linecap="round" stroke-linejoin="round"/>
<path id="Vector_11" d="M31.5312 18.7676L37.3512 24.6061" stroke="#3F4040" stroke-width="1.2" stroke-miterlimit="10" stroke-linecap="round" stroke-linejoin="round"/>
</g>
</svg>
