<svg width="24" height="24" viewBox="0 0 24 24" fill="none" xmlns="http://www.w3.org/2000/svg">
<path d="M21.9987 16.437C21.9987 17.567 21.9987 18.1321 21.7704 18.4091C21.5721 18.6497 21.2729 18.7841 20.9613 18.7724C20.6026 18.759 20.1803 18.3836 19.3357 17.6329L14.344 13.1958C13.8788 12.7822 13.6461 12.5754 13.5604 12.3312C13.4851 12.1168 13.4851 11.8831 13.5604 11.6687C13.6461 11.4245 13.8788 11.2177 14.344 10.8041L19.3357 6.36706C20.1803 5.61631 20.6026 5.24093 20.9613 5.22751C21.2729 5.21584 21.5721 5.35021 21.7704 5.59086C21.9987 5.86787 21.9987 6.43288 21.9987 7.56291V16.437Z" stroke="#151A1A" stroke-width="1.5" stroke-linecap="round" stroke-linejoin="round"/>
<path d="M10.9987 16.437C10.9987 17.567 10.9987 18.1321 10.7704 18.4091C10.5721 18.6497 10.2729 18.7841 9.9613 18.7724C9.60262 18.759 9.18032 18.3836 8.33572 17.6329L3.34404 13.1958C2.87876 12.7822 2.64611 12.5754 2.56037 12.3312C2.48508 12.1168 2.48508 11.8831 2.56037 11.6687C2.64611 11.4245 2.87876 11.2177 3.34404 10.8041L8.33572 6.36706C9.18032 5.61631 9.60262 5.24093 9.9613 5.22751C10.2729 5.21584 10.5721 5.35021 10.7704 5.59086C10.9987 5.86787 10.9987 6.43288 10.9987 7.56291V16.437Z" stroke="#151A1A" stroke-width="1.5" stroke-linecap="round" stroke-linejoin="round"/>
</svg>
