<svg width="16" height="16" viewBox="0 0 16 16" fill="none" xmlns="http://www.w3.org/2000/svg">
<g id="file-heart-02">
<path id="Icon" d="M13.3346 6.66732V4.53398C13.3346 3.41388 13.3346 2.85383 13.1166 2.426C12.9249 2.04968 12.6189 1.74372 12.2426 1.55197C11.8148 1.33398 11.2547 1.33398 10.1346 1.33398H5.86797C4.74786 1.33398 4.18781 1.33398 3.75999 1.55197C3.38366 1.74372 3.0777 2.04968 2.88596 2.426C2.66797 2.85383 2.66797 3.41388 2.66797 4.53398V11.4673C2.66797 12.5874 2.66797 13.1475 2.88596 13.5753C3.0777 13.9516 3.38366 14.2576 3.75999 14.4493C4.18781 14.6673 4.74786 14.6673 5.86797 14.6673H8.0013M8.33464 7.33398H5.33464M6.0013 10.0007H5.33464M10.668 4.66732H5.33464M11.3328 9.88771C10.7996 9.28172 9.91057 9.11871 9.24255 9.67362C8.57454 10.2285 8.48049 11.1563 9.00509 11.8126C9.52968 12.4689 11.3328 14.0007 11.3328 14.0007C11.3328 14.0007 13.1359 12.4689 13.6605 11.8126C14.1851 11.1563 14.1026 10.2227 13.4231 9.67362C12.7436 9.12454 11.866 9.28172 11.3328 9.88771Z" stroke="#727776" stroke-width="1.5" stroke-linecap="round" stroke-linejoin="round"/>
</g>
</svg>
