<svg width="148" height="20" viewBox="0 0 148 20" fill="none" xmlns="http://www.w3.org/2000/svg">
<g id="Group 1321317047">
<g id="Group 1321317046">
<path id="Icon" d="M9.10329 1.81663C9.47013 1.07346 10.5299 1.07346 10.8967 1.81663L12.8576 5.78909C13.0031 6.08394 13.2843 6.2884 13.6096 6.33595L17.9962 6.97712C18.8161 7.09696 19.1429 8.1048 18.5493 8.68296L15.3768 11.773C15.1409 12.0027 15.0333 12.3339 15.0889 12.6584L15.8374 17.0226C15.9775 17.8396 15.12 18.4626 14.3864 18.0767L10.4655 16.0148C10.1741 15.8615 9.82593 15.8615 9.53455 16.0148L5.61363 18.0767C4.88 18.4626 4.02245 17.8396 4.16257 17.0226L4.91109 12.6584C4.96675 12.3339 4.85908 12.0027 4.62321 11.773L1.45068 8.68296C0.857085 8.1048 1.18387 7.09696 2.00378 6.97712L6.39037 6.33595C6.71572 6.2884 6.99691 6.08394 7.14245 5.78909L9.10329 1.81663Z" fill="#2ABCA0"/>
<path id="Icon_2" d="M41.1033 1.81663C41.4701 1.07346 42.5299 1.07346 42.8967 1.81663L44.8576 5.78909C45.0031 6.08394 45.2843 6.2884 45.6096 6.33595L49.9962 6.97712C50.8161 7.09696 51.1429 8.1048 50.5493 8.68296L47.3768 11.773C47.1409 12.0027 47.0333 12.3339 47.0889 12.6584L47.8374 17.0226C47.9775 17.8396 47.12 18.4626 46.3864 18.0767L42.4655 16.0148C42.1741 15.8615 41.8259 15.8615 41.5345 16.0148L37.6136 18.0767C36.88 18.4626 36.0225 17.8396 36.1626 17.0226L36.9111 12.6584C36.9667 12.3339 36.8591 12.0027 36.6232 11.773L33.4507 8.68296C32.8571 8.1048 33.1839 7.09696 34.0038 6.97712L38.3904 6.33595C38.7157 6.2884 38.9969 6.08394 39.1424 5.78909L41.1033 1.81663Z" fill="#2ABCA0"/>
<path id="Icon_3" d="M73.1033 1.81663C73.4701 1.07346 74.5299 1.07346 74.8967 1.81663L76.8576 5.78909C77.0031 6.08394 77.2843 6.2884 77.6096 6.33595L81.9962 6.97712C82.8161 7.09696 83.1429 8.1048 82.5493 8.68296L79.3768 11.773C79.1409 12.0027 79.0333 12.3339 79.0889 12.6584L79.8374 17.0226C79.9775 17.8396 79.12 18.4626 78.3864 18.0767L74.4655 16.0148C74.1741 15.8615 73.8259 15.8615 73.5345 16.0148L69.6136 18.0767C68.88 18.4626 68.0225 17.8396 68.1626 17.0226L68.9111 12.6584C68.9667 12.3339 68.8591 12.0027 68.6232 11.773L65.4507 8.68296C64.8571 8.1048 65.1839 7.09696 66.0038 6.97712L70.3904 6.33595C70.7157 6.2884 70.9969 6.08394 71.1424 5.78909L73.1033 1.81663Z" fill="#2ABCA0"/>
<path id="Icon_4" d="M105.103 1.81663C105.47 1.07346 106.53 1.07346 106.897 1.81663L108.858 5.78909C109.003 6.08394 109.284 6.2884 109.61 6.33595L113.996 6.97712C114.816 7.09696 115.143 8.1048 114.549 8.68296L111.377 11.773C111.141 12.0027 111.033 12.3339 111.089 12.6584L111.837 17.0226C111.978 17.8396 111.12 18.4626 110.386 18.0767L106.465 16.0148C106.174 15.8615 105.826 15.8615 105.535 16.0148L101.614 18.0767C100.88 18.4626 100.022 17.8396 100.163 17.0226L100.911 12.6584C100.967 12.3339 100.859 12.0027 100.623 11.773L97.4507 8.68296C96.8571 8.1048 97.1839 7.09696 98.0038 6.97712L102.39 6.33595C102.716 6.2884 102.997 6.08394 103.142 5.78909L105.103 1.81663Z" fill="#2ABCA0"/>
<path id="Icon_5" d="M137.103 1.81663C137.47 1.07346 138.53 1.07346 138.897 1.81663L140.858 5.78909C141.003 6.08394 141.284 6.2884 141.61 6.33595L145.996 6.97712C146.816 7.09696 147.143 8.1048 146.549 8.68296L143.377 11.773C143.141 12.0027 143.033 12.3339 143.089 12.6584L143.837 17.0226C143.978 17.8396 143.12 18.4626 142.386 18.0767L138.465 16.0148C138.174 15.8615 137.826 15.8615 137.535 16.0148L133.614 18.0767C132.88 18.4626 132.022 17.8396 132.163 17.0226L132.911 12.6584C132.967 12.3339 132.859 12.0027 132.623 11.773L129.451 8.68296C128.857 8.1048 129.184 7.09696 130.004 6.97712L134.39 6.33595C134.716 6.2884 134.997 6.08394 135.142 5.78909L137.103 1.81663Z" fill="#2ABCA0"/>
</g>
<path id="Icon_6" d="M140 6.05086L148 7.32086L143 12.1909L144.18 19.0709L142.09 17.8109L140 16.5509V15.5509V12.1909V9.05086V6.05086Z" fill="#F7F8F7"/>
</g>
</svg>
