<svg width="24" height="24" viewBox="0 0 24 24" fill="none" xmlns="http://www.w3.org/2000/svg">
<path d="M14.1106 6.72217H20.1399C20.5872 6.72217 20.8108 6.72217 20.9416 6.81621C21.0557 6.89826 21.1301 7.02456 21.1464 7.16416C21.1651 7.32417 21.0564 7.51967 20.8392 7.91068L19.3697 10.5559C19.2909 10.6977 19.2515 10.7686 19.2361 10.8437C19.2224 10.9101 19.2224 10.9787 19.2361 11.0451C19.2515 11.1202 19.2909 11.1911 19.3697 11.3329L20.8392 13.9781C21.0564 14.3691 21.1651 14.5646 21.1464 14.7246C21.1301 14.8642 21.0557 14.9905 20.9416 15.0726C20.8108 15.1666 20.5872 15.1666 20.1399 15.1666H12.5439C11.9839 15.1666 11.7039 15.1666 11.49 15.0576C11.3018 14.9617 11.1488 14.8088 11.0529 14.6206C10.9439 14.4067 10.9439 14.1267 10.9439 13.5666V10.9444M7.24951 21.5002L3.02729 4.61133M4.61067 10.9444H12.5106C13.0707 10.9444 13.3507 10.9444 13.5646 10.8355C13.7528 10.7396 13.9058 10.5866 14.0016 10.3984C14.1106 10.1845 14.1106 9.9045 14.1106 9.34445V4.1C14.1106 3.53995 14.1106 3.25992 14.0016 3.04601C13.9058 2.85785 13.7528 2.70487 13.5646 2.60899C13.3507 2.5 13.0707 2.5 12.5106 2.5H4.54873C3.85021 2.5 3.50095 2.5 3.26207 2.64474C3.0527 2.77159 2.89713 2.97084 2.82485 3.20472C2.74238 3.47158 2.82709 3.81041 2.99651 4.48807L4.61067 10.9444Z" stroke="#151A1A" stroke-width="1.5" stroke-linecap="round" stroke-linejoin="round"/>
</svg>
