<svg width="25" height="24" viewBox="0 0 25 24" fill="none" xmlns="http://www.w3.org/2000/svg">
<g id="devicon:google">
<path id="Vector" d="M8.85909 0.789375C6.46112 1.62125 4.39311 3.20019 2.95882 5.29425C1.52454 7.38832 0.799573 9.88715 0.890418 12.4237C0.981264 14.9602 1.88313 17.4008 3.46355 19.3869C5.04396 21.373 7.21962 22.7999 9.67096 23.4581C11.6583 23.9709 13.7405 23.9935 15.7385 23.5238C17.5484 23.1172 19.2218 22.2476 20.5947 21C22.0236 19.6619 23.0608 17.9596 23.5947 16.0763C24.1751 14.0281 24.2783 11.8742 23.8966 9.78H12.7366V14.4094H19.1997C19.0705 15.1477 18.7937 15.8524 18.3859 16.4813C17.978 17.1102 17.4474 17.6503 16.826 18.0694C16.0367 18.5914 15.1471 18.9427 14.2141 19.1006C13.2784 19.2746 12.3186 19.2746 11.3828 19.1006C10.4344 18.9045 9.53727 18.5131 8.74846 17.9513C7.48124 17.0542 6.52973 15.7799 6.02971 14.31C5.52124 12.8126 5.52124 11.1893 6.02971 9.69188C6.38564 8.64228 6.97403 7.68663 7.75096 6.89625C8.64007 5.97515 9.76571 5.31674 11.0044 4.99327C12.243 4.66979 13.5469 4.69375 14.7728 5.0625C15.7305 5.35648 16.6063 5.87013 17.3303 6.5625C18.0591 5.8375 18.7866 5.11063 19.5128 4.38188C19.8878 3.99 20.2966 3.61688 20.666 3.21563C19.5608 2.18714 18.2635 1.38686 16.8485 0.860625C14.2717 -0.0750188 11.4522 -0.100163 8.85909 0.789375Z" fill="white"/>
<path id="Vector_2" d="M8.85875 0.789375C11.4516 -0.100768 14.2711 -0.0762857 16.8481 0.85875C18.2634 1.38856 19.5601 2.1927 20.6637 3.225C20.2887 3.62625 19.8931 4.00125 19.5106 4.39125C18.7831 5.1175 18.0562 5.84125 17.33 6.5625C16.606 5.87013 15.7302 5.35648 14.7725 5.0625C13.547 4.69245 12.2432 4.66711 11.0042 4.98927C9.76516 5.31142 8.63883 5.96862 7.74875 6.88875C6.97181 7.67913 6.38342 8.63478 6.0275 9.68437L2.14062 6.675C3.53189 3.91605 5.94078 1.80567 8.85875 0.789375Z" fill="#E33629"/>
<path id="Vector_3" d="M1.1114 9.65625C1.32032 8.62086 1.66716 7.61817 2.14265 6.675L6.02953 9.69187C5.52105 11.1893 5.52105 12.8126 6.02953 14.31C4.73453 15.31 3.4389 16.315 2.14265 17.325C0.952308 14.9556 0.589275 12.2559 1.1114 9.65625Z" fill="#F8BD00"/>
<path id="Vector_4" d="M12.7391 9.77813H23.8991C24.2809 11.8724 24.1776 14.0263 23.5972 16.0744C23.0633 17.9578 22.0261 19.66 20.5972 20.9981C19.3429 20.0194 18.0829 19.0481 16.8285 18.0694C17.4504 17.6499 17.9812 17.1092 18.3891 16.4796C18.797 15.8501 19.0735 15.1446 19.2022 14.4056H12.7391C12.7372 12.8644 12.7391 11.3213 12.7391 9.77813Z" fill="#587DBD"/>
<path id="Vector_5" d="M2.14062 17.325C3.43687 16.325 4.7325 15.32 6.0275 14.31C6.52851 15.7804 7.48138 17.0548 8.75 17.9512C9.54127 18.5105 10.4404 18.8987 11.39 19.0912C12.3257 19.2652 13.2855 19.2652 14.2213 19.0912C15.1542 18.9333 16.0439 18.5821 16.8331 18.06C18.0875 19.0387 19.3475 20.01 20.6019 20.9887C19.2292 22.237 17.5558 23.1073 15.7456 23.5144C13.7476 23.9841 11.6655 23.9616 9.67813 23.4487C8.10632 23.0291 6.63814 22.2892 5.36563 21.2756C4.01874 20.2063 2.91867 18.8587 2.14062 17.325Z" fill="#319F43"/>
</g>
</svg>
