<svg width="74" height="82" viewBox="0 0 74 82" fill="none" xmlns="http://www.w3.org/2000/svg">
<g id="Group">
<path id="Vector" fill-rule="evenodd" clip-rule="evenodd" d="M29.8031 48.2065C13.8905 55.2083 9.11745 58.9408 7.23054 60.6176C4.32259 63.1998 2.71429 72.8264 1 80.9999H36.9995H73C71.2846 72.8264 69.6769 63.1998 66.7695 60.6176C64.8831 58.9408 60.2849 55.3048 44.3723 48.3025L29.8031 48.2065Z" fill="#FCC9B7"/>
<path id="Vector_2" fill-rule="evenodd" clip-rule="evenodd" d="M29.802 48.2065C13.8905 55.2083 9.11745 58.9408 7.23054 60.6176C4.32259 63.1998 2.71429 72.8264 1 80.9999H36.9995H73C71.2846 72.8264 69.6769 63.1998 66.7695 60.6176C64.8831 58.9408 60.2849 55.3048 44.3723 48.3025L29.802 48.2065Z" fill="#939897" stroke="#727776" stroke-miterlimit="10" stroke-linecap="round" stroke-linejoin="round"/>
<path id="Vector_3" fill-rule="evenodd" clip-rule="evenodd" d="M29.2772 48.4395V51.9527L32.6337 80.9992H26.8626L20.514 68.0623L26.5741 64.0068L19.168 60.5314L25.9781 49.9249L29.2772 48.4395Z" fill="#F6F6F6" stroke="#727776" stroke-miterlimit="10" stroke-linecap="round" stroke-linejoin="round"/>
<path id="Vector_4" fill-rule="evenodd" clip-rule="evenodd" d="M44.7291 48.4585V51.9531L43.0345 66.4764L41.3398 80.9996H47.1104L53.4589 68.0627L47.3994 64.0072L54.8045 60.5318L48.7526 50.2516L44.7291 48.4585Z" fill="#F6F6F6" stroke="#727776" stroke-miterlimit="10" stroke-linecap="round" stroke-linejoin="round"/>
<path id="Vector_5" fill-rule="evenodd" clip-rule="evenodd" d="M29.2734 34.2489V46.1018V51.9526C33.5225 56.9956 40.4758 57.1766 44.7255 51.9526V46.1018V34.2489C44.726 24.6892 29.2734 24.6892 29.2734 34.2489Z" fill="#FCC9B7"/>
<path id="Vector_6" d="M20.9431 26.5793C20.1684 24.2173 18.4373 22.667 17.0765 23.1166C15.7158 23.5662 15.2406 25.8455 16.0153 28.2075C16.79 30.5696 18.5211 32.1199 19.8818 31.6703C21.2426 31.2206 21.7177 28.9413 20.9431 26.5793Z" fill="#FCC9B7"/>
<path id="Vector_7" d="M57.9223 28.2134C58.6972 25.8516 58.2219 23.5723 56.8607 23.1223C55.4995 22.6723 53.7679 24.2222 52.993 26.584C52.218 28.9457 52.6933 31.2251 54.0545 31.6751C55.4157 32.125 57.1473 30.5752 57.9223 28.2134Z" fill="#FCC9B7"/>
<path id="Vector_8" fill-rule="evenodd" clip-rule="evenodd" d="M36.9976 2.46484C11.067 2.46484 21.0058 35.1453 22.6993 37.6479C24.5671 40.4088 32.8091 46.4959 36.9976 46.4959C41.1882 46.4959 49.4281 40.4088 51.2958 37.6479C52.9899 35.1447 62.9293 2.46484 36.9976 2.46484Z" fill="#FCC9B7"/>
<path id="Vector_9" d="M54.0932 27.3774C55.3666 20.2978 54.5444 3.80655 49.696 4.35489C45.1891 -0.854327 29.483 -1.81392 25.1809 3.80655C15.3327 5.96262 19.9025 27.4728 19.9025 27.4728C20.2106 29.5631 20.6346 31.4806 21.0672 33.0862C21.7266 33.0335 22.3871 32.9875 23.0498 32.9475C22.3363 31.4686 21.7446 29.948 21.5163 28.8327C21.3863 28.1977 21.0995 25.8816 21.1175 25.3754C21.2563 21.5069 23.7184 10.2419 27.9582 9.35793C29.6103 9.01357 33.7397 13.2418 36.4483 13.2358C39.2939 13.1508 42.8684 8.89129 44.711 9.17533C49.1164 9.85418 52.8536 20.1986 52.8148 25.1912C52.8099 25.8333 52.0986 29.6667 51.0328 32.3799C51.7425 32.3372 52.4499 32.2873 53.1552 32.2308C53.5141 30.7903 53.8539 29.1486 54.1112 27.3846L54.0932 27.3774Z" fill="#3F4040"/>
</g>
</svg>
