<svg width="72" height="77" viewBox="0 0 72 77" fill="none" xmlns="http://www.w3.org/2000/svg">
<g id="Group">
<path id="Vector" fill-rule="evenodd" clip-rule="evenodd" d="M29.0495 2.73055C30.911 -0.355538 45.754 -3.07677 51.809 7.89391C57.8645 18.8651 54.8146 22.7081 58.1542 26.5803C61.4955 30.4526 58.3492 39.3396 56.0285 40.1178C53.7078 40.897 54.6394 43.9698 55.7718 45.2907C60.6033 50.9271 53.6162 60.4288 34.9617 60.3318C15.0215 60.2274 11.1093 49.1774 16.222 45.7302C17.8886 44.6058 18.5347 42.447 16.7089 40.545C14.883 38.6429 10.673 31.5568 14.6396 25.7484C18.6082 19.941 15.1413 2.72203 29.0495 2.73055Z" fill="#3F4040"/>
<path id="Vector_2" d="M7.79129 59.5618L7.79131 59.5618C11.5107 58.7301 15.7369 57.632 19.5824 55.9599C23.358 54.3182 26.8118 52.1042 29.0507 49.0013C29.144 48.9911 29.2717 48.9803 29.4332 48.9691C29.8168 48.9424 30.3614 48.9155 31.017 48.8883C32.3166 48.8344 34.0345 48.7803 35.7591 48.7261L35.8006 48.7248C37.5372 48.6702 39.2773 48.6153 40.592 48.5603C41.2487 48.5329 41.804 48.5052 42.2012 48.4772C42.3397 48.4674 42.4629 48.4574 42.5664 48.4469C44.7107 51.6415 48.2144 53.9798 52.0647 55.7248C56.0345 57.524 60.4267 58.7165 64.2076 59.5618C67.733 60.35 69.5519 62.9152 70.5001 66.144C71.4041 69.222 71.4876 72.8192 71.4987 75.8547H0.501642C0.516476 72.8222 0.634097 69.2157 1.55519 66.1335C2.52288 62.8953 4.34329 60.3327 7.79129 59.5618Z" fill="#939897" stroke="#727776"/>
<path id="Vector_3" fill-rule="evenodd" clip-rule="evenodd" d="M28.7852 34.7356V46.5686V52.4085C32.3996 59.803 38.8887 59.9953 43.2126 52.4085V46.5681V34.7356C43.2126 25.1929 28.7852 25.1929 28.7852 34.7356Z" fill="#FCC9B7"/>
<path id="Vector_4" d="M56.6399 32.3929C57.7621 29.7807 57.447 27.1369 55.9361 26.4878C54.4253 25.8388 52.2908 27.4303 51.1686 30.0426C50.0464 32.6548 50.3615 35.2986 51.8724 35.9477C53.3832 36.5967 55.5177 35.0052 56.6399 32.3929Z" fill="#FCC9B7"/>
<path id="Vector_5" fill-rule="evenodd" clip-rule="evenodd" d="M35.9987 46.9601C31.3019 46.9601 21.38 39.5761 18.3125 29.0012C15.2152 18.3219 21.0481 3.00488 35.9987 3.00488C50.9481 3.00488 56.7826 18.3219 53.6843 29.0007C50.6158 39.5761 40.6949 46.9601 35.9987 46.9601Z" fill="#FCC9B7"/>
<path id="Vector_6" fill-rule="evenodd" clip-rule="evenodd" d="M32.4821 16.248C28.8139 23.584 27.3251 25.7497 22.4478 23.813C17.571 21.8769 17.9646 27.3044 18.8509 31.1772C14.5318 25.9473 15.572 20.9799 16.9153 15.93C18.3875 10.3959 25.8135 1.97657 32.7788 2.13157C36.5632 1.7518 42.2911 2.20081 48.3855 6.38838C59.0254 13.7025 55.4722 30.1364 52.6056 32.0747C55.3817 16.8531 48.5847 19.9519 43.8938 11.9901C42.3529 8.4891 36.4699 8.27338 32.4821 16.248Z" fill="#3F4040"/>
<path id="Vector_7" d="M37.6558 57.8447V57.3447H37.1558H35.6133H35.1133V57.8447V75.5838V76.0838H35.6133H37.1558H37.6558V75.5838V57.8447Z" fill="#F6F6F6" stroke="#727776"/>
<g id="Group_2">
<path id="Vector_8" d="M30.274 62.6271L24.2819 53.3281L28.7102 49.2804L35.1658 57.9856L30.274 62.6271Z" fill="#F6F6F6" stroke="#727776" stroke-miterlimit="10"/>
<path id="Vector_9" d="M36.504 57.9919L43.266 49.2473L47.7039 53.4764L41.4019 62.6395L36.504 57.9919Z" fill="#F6F6F6" stroke="#727776" stroke-miterlimit="10"/>
</g>
</g>
</svg>
