<svg width="46" height="34" viewBox="0 0 46 34" fill="none" xmlns="http://www.w3.org/2000/svg">
<g id="Group">
<path id="Vector" d="M27.0618 22.1968C25.2637 19.0923 26.7908 16.5343 26.7908 16.5343L31.0027 7.86654L31.8155 6.20254C31.8155 3.96731 27.8007 2.1543 22.8745 2.1543C17.9238 2.1543 13.9336 3.96731 13.9336 6.20254L14.7464 7.86654L18.9336 16.5343C18.9336 16.5343 20.4608 19.0923 18.6627 22.1968C18.5642 22.4203 18.5395 22.7184 18.6381 22.9916L21.8401 32.2553C22.1849 33.2488 23.5642 33.2488 23.9091 32.2553L27.111 22.9916C27.2095 22.6935 27.1603 22.4203 27.0618 22.1968Z" stroke="#3F4040" stroke-width="1.3" stroke-miterlimit="10"/>
<path id="Vector_2" d="M13.9089 6.20305C13.9089 6.20305 9.82016 6.69977 8.61326 3.91815C7.40636 1.13654 5.48522 0.664661 4.13054 1.18621C2.77585 1.70777 -0.278398 4.11684 1.0024 7.32067C2.25856 10.5493 5.28818 11.5179 5.28818 11.5179" stroke="#3F4040" stroke-width="1.3" stroke-miterlimit="10"/>
<path id="Vector_3" d="M7.97281 15.5429C9.57798 15.5429 10.8792 14.2308 10.8792 12.6123C10.8792 10.9937 9.57798 9.68164 7.97281 9.68164C6.36764 9.68164 5.06641 10.9937 5.06641 12.6123C5.06641 14.2308 6.36764 15.5429 7.97281 15.5429Z" stroke="#3F4040" stroke-width="1.3" stroke-miterlimit="10"/>
<path id="Vector_4" d="M31.793 6.20305C31.793 6.20305 35.8817 6.69977 37.0886 3.91815C38.2955 1.13654 40.2167 0.664661 41.5713 1.18621C42.926 1.70777 45.9803 4.11684 44.6995 7.32067C43.4187 10.5245 40.4137 11.5179 40.4137 11.5179" stroke="#3F4040" stroke-width="1.3" stroke-miterlimit="10"/>
<path id="Vector_5" d="M37.7033 15.5429C39.3085 15.5429 40.6097 14.2308 40.6097 12.6123C40.6097 10.9937 39.3085 9.68164 37.7033 9.68164C36.0982 9.68164 34.7969 10.9937 34.7969 12.6123C34.7969 14.2308 36.0982 15.5429 37.7033 15.5429Z" stroke="#3F4040" stroke-width="1.3" stroke-miterlimit="10"/>
<path id="Vector_6" d="M20.7328 10.9215C19.92 9.33197 21.0531 7.41961 22.8265 7.39477C24.5999 7.36994 25.7822 9.25746 24.994 10.8718C24.1565 12.6848 21.6442 12.7096 20.7328 10.9215Z" stroke="#3F4040" stroke-width="1.3" stroke-miterlimit="10"/>
</g>
</svg>
