<svg width="25" height="24" viewBox="0 0 25 24" fill="none" xmlns="http://www.w3.org/2000/svg">
<g id="Heart Rate">
<path id="Vector" d="M20.9002 12C21.1807 11.1055 21.332 10.2086 21.332 9.33876C21.332 6.38764 19.091 4 16.328 4C14.699 4 13.241 4.84045 12.332 6.13933C11.423 4.84045 9.97403 4 8.33603 4C5.57303 4 3.33203 6.38764 3.33203 9.33876C3.33203 10.4366 3.50442 11.495 3.82237 12.5M20.9002 12C19.7384 15.705 16.3596 19.3686 12.332 20.8955C8.37004 19.3935 5.03594 16.3359 3.82237 12.5M20.9002 12H18.4356C18.3693 12 18.3057 11.9737 18.2588 11.9268L17.0773 10.7453C16.9566 10.6246 16.7532 10.6576 16.6769 10.8102L15.4872 13.1898C15.4108 13.3424 15.2074 13.3754 15.0868 13.2547L14.0407 12.2087C13.9315 12.0994 13.7503 12.1144 13.6605 12.2401L11.6544 15.0487C11.5292 15.224 11.2558 15.1695 11.2073 14.9596L9.97829 9.63378C9.9268 9.41066 9.62736 9.36841 9.51615 9.56858L7.51926 13.163C7.43129 13.3213 7.20939 13.3365 7.10072 13.1916L6.00498 11.7306C5.9137 11.6089 5.73578 11.5962 5.62821 11.7038L4.90525 12.4268C4.85837 12.4737 4.79478 12.5 4.72848 12.5H4.28025H3.82237" stroke="#9B59B6" stroke-width="1.5" stroke-linecap="round" stroke-linejoin="round"/>
</g>
</svg>
