<svg width="41" height="40" viewBox="0 0 41 40" fill="none" xmlns="http://www.w3.org/2000/svg">
<g id="Heart Rate">
<path id="Vector" d="M34.4327 19.9993C34.9002 18.5085 35.1523 17.0137 35.1523 15.564C35.1523 10.6454 31.4173 6.66602 26.8123 6.66602C24.0973 6.66602 21.6673 8.06677 20.1523 10.2316C18.6373 8.06677 16.2223 6.66602 13.4923 6.66602C8.88734 6.66602 5.15234 10.6454 5.15234 15.564C5.15234 17.3937 5.43967 19.1577 5.96958 20.8327M34.4327 19.9993C32.4962 26.1743 26.865 32.2804 20.1523 34.8252C13.549 32.3219 7.9922 27.2259 5.96958 20.8327M34.4327 19.9993H30.3249C30.2144 19.9993 30.1084 19.9555 30.0303 19.8773L28.0611 17.9081C27.86 17.707 27.521 17.762 27.3938 18.0164L25.4109 21.9823C25.2837 22.2367 24.9447 22.2917 24.7436 22.0906L23.0001 20.3471C22.8181 20.1651 22.5161 20.1901 22.3665 20.3996L19.0229 25.0806C18.8143 25.3727 18.3586 25.2818 18.2778 24.9321L16.2294 16.0556C16.1436 15.6838 15.6446 15.6134 15.4592 15.947L12.1311 21.9377C11.9844 22.2016 11.6146 22.2268 11.4335 21.9853L9.60726 19.5504C9.45513 19.3475 9.1586 19.3264 8.9793 19.5057L7.77438 20.7106C7.69624 20.7888 7.59026 20.8327 7.47975 20.8327H6.73272H5.96958" stroke="#3F4040" stroke-width="1.5" stroke-linecap="round" stroke-linejoin="round"/>
</g>
</svg>
