<svg width="24" height="24" viewBox="0 0 24 24" fill="none" xmlns="http://www.w3.org/2000/svg">
<path d="M18.9992 21H20.0095C20.9807 21 21.4663 21 21.7339 20.7975C21.9671 20.6211 22.1114 20.3515 22.1289 20.0596C22.1489 19.7246 21.8795 19.3205 21.3408 18.5125L18.3304 13.9969C17.8853 13.3292 17.6628 12.9954 17.3822 12.8791C17.137 12.7773 16.8613 12.7773 16.6161 12.8791C16.3356 12.9954 16.113 13.3292 15.6679 13.9969L14.9237 15.1132M18.9992 21L11.3147 9.90018C10.8727 9.26182 10.6518 8.94264 10.3757 8.83044C10.1343 8.73228 9.86404 8.73228 9.62258 8.83044C9.34657 8.94264 9.1256 9.26182 8.68365 9.90018L2.73736 18.4893C2.17434 19.3025 1.89282 19.7092 1.90885 20.0473C1.92281 20.3419 2.06603 20.6152 2.30024 20.7943C2.56917 21 3.06373 21 4.05287 21H18.9992ZM20.9992 6C20.9992 7.65685 19.656 9 17.9992 9C16.3423 9 14.9992 7.65685 14.9992 6C14.9992 4.34315 16.3423 3 17.9992 3C19.656 3 20.9992 4.34315 20.9992 6Z" stroke="#151A1A" stroke-width="1.5" stroke-linecap="round" stroke-linejoin="round"/>
</svg>
