<svg width="41" height="40" viewBox="0 0 41 40" fill="none" xmlns="http://www.w3.org/2000/svg">
<g id="Joints Bone">
<path id="Vector" d="M7.99992 29.1663L11.955 25.2111C12.3456 24.8206 12.3252 24.1898 12.088 23.691C11.5299 22.5171 11.7744 21.0244 12.7978 20.001C14.0788 18.7201 16.0949 18.6593 17.3009 19.8653C17.8013 20.3657 18.0836 21.0056 18.1511 21.6745C18.1645 21.807 18.2707 21.9132 18.4032 21.9266C19.0722 21.9942 19.712 22.2765 20.2124 22.7769C21.4184 23.9829 21.3577 25.999 20.0767 27.2799C19.0533 28.3033 17.5606 28.5479 16.3867 27.9897C15.888 27.7526 15.2571 27.7322 14.8666 28.1227L10.8262 32.1631" stroke="#3F4040" stroke-width="1.5" stroke-linecap="round"/>
<path id="Vector_2" d="M29.8205 7.34842L25.8554 11.3135C25.4648 11.7041 24.834 11.6836 24.3351 11.4467C23.1607 10.889 21.6667 11.1349 20.6417 12.1599C19.3588 13.4428 19.2964 15.4605 20.5024 16.6665C21.0028 17.1668 21.6428 17.4489 22.3122 17.516C22.4448 17.5293 22.5512 17.6357 22.5645 17.7683C22.6316 18.4376 22.9136 19.0777 23.414 19.578C24.62 20.7841 26.6377 20.7217 27.9206 19.4388C28.9456 18.4138 29.1914 16.9197 28.6338 15.7453C28.3968 15.2465 28.3764 14.6156 28.7669 14.2251L32.8041 10.1879" stroke="#3F4040" stroke-width="1.5" stroke-linecap="round"/>
<g id="Group">
<path id="Vector_3" d="M14.8177 14.1673L13.9844 13.334" stroke="#3F4040" stroke-width="1.5" stroke-linecap="round"/>
<path id="Vector_4" d="M17.3203 13.3333L17.3203 12.5" stroke="#3F4040" stroke-width="1.5" stroke-linecap="round"/>
<path id="Vector_5" d="M13.9857 16.666L13.1523 16.666" stroke="#3F4040" stroke-width="1.5" stroke-linecap="round"/>
</g>
<g id="Group_2">
<path id="Vector_6" d="M26.487 25.8327L27.3203 26.666" stroke="#3F4040" stroke-width="1.5" stroke-linecap="round"/>
<path id="Vector_7" d="M23.9883 26.6667L23.9883 27.5" stroke="#3F4040" stroke-width="1.5" stroke-linecap="round"/>
<path id="Vector_8" d="M27.319 23.334L28.1523 23.334" stroke="#3F4040" stroke-width="1.5" stroke-linecap="round"/>
</g>
</g>
</svg>
