<svg width="41" height="40" viewBox="0 0 41 40" fill="none" xmlns="http://www.w3.org/2000/svg">
<g id="Oncology">
<path id="Vector" d="M14.3808 6.90061C14.3155 8.39503 14.807 9.43824 15.9632 11.1543M14.3808 6.90061C17.4884 3.13469 24.4084 3.13469 27.516 6.90061M14.3808 6.90061C9.61406 12.2577 14.2593 17.7186 17.6613 22.0162M15.9632 11.1543C17.5469 13.5047 19.1938 15.8256 20.9484 18.0516M15.9632 11.1543C19.4413 8.72576 22.4555 8.72576 25.9336 11.1543M27.516 6.90061C27.5813 8.39503 27.0898 9.43824 25.9336 11.1543M27.516 6.90061C32.2827 12.2577 27.6375 17.7186 24.2355 22.0162M25.9336 11.1543C24.3499 13.5047 22.703 15.8256 20.9484 18.0516M20.9484 18.0516C19.875 19.4134 18.7793 20.7238 17.6613 22.0162M17.6613 22.0162C16.1163 23.8021 11.7704 28.7028 11.2633 29.2745C11.2338 29.3077 11.2297 29.3527 11.2533 29.3903C11.5557 29.871 13.5561 33.05 14.2817 34.1676C14.3298 34.2446 17.5735 30.3161 20.9484 26.1286M20.9484 26.1286C24.3233 30.3161 27.567 34.2446 27.6151 34.1676C28.2067 33.2564 30.3308 29.8865 30.6434 29.3904C30.6671 29.3528 30.6638 29.3087 30.6343 29.2755C30.1142 28.6883 25.4875 23.4634 24.2355 22.0162M20.9484 26.1286C22.0669 24.7408 23.1997 23.3245 24.2355 22.0162" stroke="#3F4040" stroke-width="1.2" stroke-miterlimit="10"/>
</g>
</svg>
