<svg width="24" height="24" viewBox="0 0 24 24" fill="none" xmlns="http://www.w3.org/2000/svg">
<path d="M11.0596 2.93203C11.3973 2.68689 11.5662 2.56432 11.7508 2.51696C11.9139 2.47514 12.0848 2.47514 12.2478 2.51696C12.4324 2.56432 12.6013 2.68689 12.9391 2.93203L21.0577 8.82396C21.3961 9.06956 21.5653 9.19235 21.6676 9.3535C21.758 9.49579 21.8109 9.65862 21.8215 9.82684C21.8334 10.0174 21.7688 10.2162 21.6394 10.6138L18.5391 20.1449C18.4099 20.5421 18.3453 20.7407 18.2237 20.8876C18.1164 21.0173 17.978 21.1178 17.8214 21.1798C17.6441 21.25 17.4353 21.25 17.0176 21.25H6.98105C6.5634 21.25 6.35457 21.25 6.17724 21.1798C6.02067 21.1178 5.88228 21.0173 5.77491 20.8876C5.65331 20.7407 5.58872 20.5421 5.45952 20.1449L2.35923 10.6138C2.22989 10.2162 2.16522 10.0174 2.17719 9.82684C2.18776 9.65862 2.24068 9.49579 2.33104 9.3535C2.43337 9.19235 2.60257 9.06956 2.94099 8.82396L11.0596 2.93203Z" stroke="#151A1A" stroke-width="1.5" stroke-linecap="round" stroke-linejoin="round"/>
</svg>
