<svg width="20" height="20" viewBox="0 0 20 20" fill="none" xmlns="http://www.w3.org/2000/svg">
<g id="phone-call-01">
<path id="Icon" d="M11.7094 4.99935C12.5233 5.15815 13.2713 5.55623 13.8577 6.14263C14.4441 6.72903 14.8422 7.47707 15.001 8.29102M11.7094 1.66602C13.4004 1.85388 14.9773 2.61116 16.1812 3.81352C17.3851 5.01588 18.1444 6.59186 18.3344 8.28268M8.5235 11.5519C7.52219 10.5506 6.73153 9.41839 6.15153 8.21037C6.10164 8.10647 6.0767 8.05451 6.05753 7.98877C5.98943 7.75514 6.03835 7.46826 6.18003 7.2704C6.21989 7.21472 6.26752 7.16709 6.36278 7.07183C6.65412 6.78049 6.79979 6.63483 6.89503 6.48834C7.25419 5.93593 7.25419 5.22378 6.89503 4.67138C6.79979 4.52489 6.65412 4.37923 6.36278 4.08789L6.20039 3.92549C5.75752 3.48263 5.53609 3.26119 5.29827 3.1409C4.8253 2.90168 4.26675 2.90168 3.79378 3.1409C3.55596 3.26119 3.33453 3.48263 2.89166 3.92549L2.7603 4.05686C2.31895 4.49821 2.09827 4.71889 1.92973 5.01891C1.74271 5.35183 1.60825 5.86891 1.60938 6.25076C1.61041 6.59488 1.67716 6.83007 1.81067 7.30044C2.52814 9.82827 3.88187 12.2136 5.87185 14.2036C7.86184 16.1935 10.2471 17.5473 12.775 18.2647C13.2453 18.3983 13.4805 18.465 13.8246 18.466C14.2065 18.4672 14.7236 18.3327 15.0565 18.1457C15.3565 17.9771 15.5772 17.7565 16.0186 17.3151L16.1499 17.1837C16.5928 16.7409 16.8142 16.5194 16.9345 16.2816C17.1737 15.8087 17.1737 15.2501 16.9345 14.7771C16.8142 14.5393 16.5928 14.3179 16.1499 13.875L15.9875 13.7126C15.6962 13.4213 15.5505 13.2756 15.404 13.1804C14.8516 12.8212 14.1395 12.8212 13.5871 13.1804C13.4406 13.2756 13.2949 13.4213 13.0036 13.7126C12.9083 13.8079 12.8607 13.8555 12.805 13.8954C12.6072 14.0371 12.3203 14.086 12.0866 14.0179C12.0209 13.9987 11.9689 13.9738 11.865 13.9239C10.657 13.3439 9.52482 12.5532 8.5235 11.5519Z" stroke="#EC4141" stroke-linecap="round" stroke-linejoin="round"/>
</g>
</svg>
