<svg width="42" height="38" viewBox="0 0 42 38" fill="none" xmlns="http://www.w3.org/2000/svg">
<g id="Group 1">
<g id="Group">
<path id="Vector" d="M18.3203 24.6874V17.2461" stroke="#3F4040" stroke-width="1.3" stroke-miterlimit="10" stroke-linecap="round"/>
<path id="Vector_2" d="M4.45905 32.0642C6.5075 32.0642 8.1681 30.4181 8.1681 28.3876C8.1681 26.357 6.5075 24.7109 4.45905 24.7109C2.4106 24.7109 0.75 26.357 0.75 28.3876C0.75 30.4181 2.4106 32.0642 4.45905 32.0642Z" stroke="#3F4040" stroke-width="1.3" stroke-miterlimit="10" stroke-linecap="round"/>
<path id="Vector_3" d="M23.8262 8.35329C25.8747 8.35329 27.5353 6.7072 27.5353 4.67664C27.5353 2.64609 25.8747 1 23.8262 1C21.7778 1 20.1172 2.64609 20.1172 4.67664C20.1172 6.7072 21.7778 8.35329 23.8262 8.35329Z" stroke="#3F4040" stroke-width="1.3" stroke-miterlimit="10" stroke-linecap="round"/>
<path id="Vector_4" d="M0.75 36.5557V33.3194C0.75 32.6369 1.32746 32.0645 2.01596 32.0645H6.83551C7.16866 32.0645 7.47959 32.1965 7.7239 32.4167L8.85661 33.5395C9.10092 33.7817 9.41185 33.8918 9.745 33.8918H39.5063C40.1948 33.8918 40.75 34.4422 40.75 35.1247V36.5557" stroke="#3F4040" stroke-width="1.3" stroke-miterlimit="10" stroke-linecap="round"/>
<path id="Vector_5" d="M14.7645 30.4145H22.0716C23.0488 30.4145 23.8262 31.1851 23.8262 32.1538C23.8262 33.1225 23.0488 33.893 22.0716 33.893H13.0544C11.1665 33.893 9.65625 32.3739 9.65625 30.5246C9.65625 28.6533 11.1887 27.1562 13.0544 27.1562H20.5613C21.0499 27.1562 21.5163 26.958 21.8717 26.6278L22.5602 25.9453" stroke="#3F4040" stroke-width="1.3" stroke-miterlimit="10" stroke-linecap="round"/>
<path id="Vector_6" d="M35.9735 33.8915H38.7719C39.8602 33.8915 40.7264 33.0329 40.7264 31.9541C40.7264 30.8753 39.8602 30.0167 38.7719 30.0167H26.6231C26.1345 30.0167 25.8235 29.4663 26.0901 29.048L27.5337 26.7363" stroke="#3F4040" stroke-width="1.3" stroke-miterlimit="10" stroke-linecap="round"/>
<path id="Vector_7" d="M29.5986 24.7115H35.3731C36.2837 24.7115 37.0167 23.9849 37.0167 23.0823C37.0167 22.1796 36.2837 21.4531 35.3731 21.4531H24.668" stroke="#3F4040" stroke-width="1.3" stroke-miterlimit="10" stroke-linecap="round"/>
<path id="Vector_8" d="M20.9397 15.7069L22.0946 19.5157C22.139 19.6918 22.2723 19.8459 22.4055 19.956L26.0924 22.4878C26.8253 22.9942 26.9363 24.0509 26.2923 24.6674C25.8036 25.1517 25.0485 25.2178 24.471 24.8435L19.5404 21.5852C19.3628 21.4751 19.2517 21.299 19.1851 21.0788L17.4305 13.5934C17.0974 12.1624 18.2078 10.7754 19.6959 10.7754H26.3367C27.3361 10.7754 28.2689 11.2377 28.8908 12.0083L34.621 19.3395" stroke="#3F4040" stroke-width="1.3" stroke-miterlimit="10" stroke-linecap="round"/>
<path id="Vector_9" d="M30.5333 19.2952L28.6232 16.1249C28.5566 16.0148 28.3789 16.0588 28.3789 16.1909V19.3832" stroke="#3F4040" stroke-width="1.3" stroke-miterlimit="10" stroke-linecap="round"/>
</g>
</g>
</svg>
