<svg width="24" height="24" viewBox="0 0 24 24" fill="none" xmlns="http://www.w3.org/2000/svg">
<path d="M8.37756 15.6163L2.7207 21.2732M11.6952 6.64181L10.1344 8.2027C10.007 8.33003 9.94337 8.39369 9.87084 8.44427C9.80646 8.48917 9.73702 8.52634 9.66395 8.555C9.58162 8.58729 9.49334 8.60495 9.31677 8.64026L5.65231 9.37315C4.70001 9.56361 4.22385 9.65884 4.00109 9.9099C3.80703 10.1286 3.71841 10.4213 3.75856 10.7109C3.80465 11.0434 4.14801 11.3867 4.83472 12.0735L11.9205 19.1592C12.6072 19.8459 12.9505 20.1893 13.283 20.2354C13.5726 20.2755 13.8653 20.1869 14.084 19.9928C14.3351 19.7701 14.4303 19.2939 14.6208 18.3416L15.3537 14.6771C15.389 14.5006 15.4066 14.4123 15.4389 14.33C15.4676 14.2569 15.5047 14.1875 15.5496 14.1231C15.6002 14.0505 15.6639 13.9869 15.7912 13.8596L17.3521 12.2987C17.4335 12.2173 17.4742 12.1766 17.5189 12.141C17.5587 12.1095 17.6008 12.081 17.6449 12.0558C17.6945 12.0274 17.7474 12.0048 17.8532 11.9594L20.3476 10.8904C21.0753 10.5785 21.4391 10.4226 21.6044 10.1706C21.7489 9.95025 21.8006 9.68175 21.7483 9.42348C21.6884 9.12813 21.4085 8.84822 20.8487 8.28839L15.7055 3.14526C15.1457 2.58543 14.8658 2.30552 14.5704 2.24565C14.3122 2.19329 14.0437 2.245 13.8233 2.38953C13.5713 2.55481 13.4154 2.91866 13.1035 3.64636L12.0345 6.14071C11.9892 6.24653 11.9665 6.29944 11.9381 6.34905C11.913 6.39313 11.8845 6.43522 11.8529 6.47496C11.8174 6.51971 11.7767 6.56041 11.6952 6.64181Z" stroke="#151A1A" stroke-width="1.5" stroke-linecap="round" stroke-linejoin="round"/>
</svg>
