<svg width="24" height="24" viewBox="0 0 24 24" fill="none" xmlns="http://www.w3.org/2000/svg">
<path d="M13.0006 10.9999L3.50062 20.4999M14.019 3.53838C15.2371 4.34658 16.4078 5.29941 17.5018 6.3934C18.6052 7.49683 19.565 8.67831 20.3777 9.90766M9.25558 7.89605L6.38071 6.93776C6.04963 6.8274 5.68496 6.89763 5.41854 7.12306L2.56138 9.54065C1.97646 10.0356 2.14263 10.9775 2.86162 11.2424L5.56881 12.2398M11.6817 18.3524L12.6791 21.0596C12.9439 21.7786 13.8858 21.9448 14.3808 21.3599L16.7984 18.5027C17.0238 18.2363 17.094 17.8716 16.9837 17.5405L16.0254 14.6657M19.3492 2.27063L14.4427 3.08838C13.9129 3.17668 13.427 3.43709 13.06 3.82932L6.44698 10.8985C4.73282 12.7308 4.7805 15.5924 6.55475 17.3667C8.329 19.1409 11.1906 19.1886 13.023 17.4744L20.0921 10.8614C20.4843 10.4944 20.7447 10.0085 20.833 9.47869L21.6508 4.57222C21.8764 3.21858 20.7028 2.04503 19.3492 2.27063Z" stroke="#151A1A" stroke-width="1.5" stroke-linecap="round" stroke-linejoin="round"/>
</svg>
