<svg width="24" height="24" viewBox="0 0 24 24" fill="none" xmlns="http://www.w3.org/2000/svg">
<path d="M10.5014 12H5.0014M4.91675 12.2915L2.58183 19.2662C2.39839 19.8142 2.30668 20.0881 2.3725 20.2569C2.42966 20.4034 2.55242 20.5145 2.7039 20.5567C2.87834 20.6054 3.1418 20.4869 3.66874 20.2497L20.3802 12.7296C20.8945 12.4981 21.1517 12.3824 21.2312 12.2216C21.3002 12.082 21.3002 11.9181 21.2312 11.7784C21.1517 11.6177 20.8945 11.5019 20.3802 11.2705L3.66291 3.74776C3.13757 3.51135 2.87489 3.39315 2.70063 3.44164C2.54929 3.48375 2.42654 3.59454 2.36918 3.74078C2.30314 3.90917 2.39388 4.18255 2.57535 4.72931L4.9174 11.7856C4.94857 11.8795 4.96415 11.9264 4.9703 11.9744C4.97576 12.0171 4.97571 12.0602 4.97014 12.1028C4.96386 12.1508 4.94816 12.1977 4.91675 12.2915Z" stroke="#151A1A" stroke-width="1.5" stroke-linecap="round" stroke-linejoin="round"/>
</svg>
