<svg width="25" height="24" viewBox="0 0 25 24" fill="none" xmlns="http://www.w3.org/2000/svg">
<g id="settings-04">
<path id="Icon" d="M3.5 8L15.5 8M15.5 8C15.5 9.65686 16.8431 11 18.5 11C20.1569 11 21.5 9.65685 21.5 8C21.5 6.34315 20.1569 5 18.5 5C16.8431 5 15.5 6.34315 15.5 8ZM9.5 16L21.5 16M9.5 16C9.5 17.6569 8.15685 19 6.5 19C4.84315 19 3.5 17.6569 3.5 16C3.5 14.3431 4.84315 13 6.5 13C8.15685 13 9.5 14.3431 9.5 16Z" stroke="#242D2B" stroke-width="1.5" stroke-linecap="round" stroke-linejoin="round"/>
</g>
</svg>
