<svg width="24" height="24" viewBox="0 0 24 24" fill="none" xmlns="http://www.w3.org/2000/svg">
<path d="M11.2906 3.36637C11.5203 2.92427 11.6351 2.70323 11.7891 2.63139C11.9231 2.56883 12.078 2.56883 12.212 2.63139C12.3659 2.70323 12.4808 2.92427 12.7104 3.36637L14.2235 6.27865C14.3225 6.46934 14.3721 6.56468 14.4464 6.62803C14.512 6.68394 14.5909 6.72195 14.6755 6.73837C14.7714 6.75697 14.8768 6.73625 15.0876 6.69481L18.3079 6.06197C18.7968 5.9659 19.0412 5.91786 19.1933 5.99342C19.3258 6.05921 19.4223 6.18027 19.457 6.32406C19.4968 6.4892 19.3956 6.71681 19.1931 7.17203L17.8596 10.1707C17.7723 10.3671 17.7286 10.4653 17.7254 10.5628C17.7226 10.649 17.7421 10.7344 17.782 10.8108C17.8272 10.8973 17.9092 10.9668 18.073 11.1058L20.5756 13.229C20.9555 13.5513 21.1455 13.7124 21.1812 13.8785C21.2124 14.0231 21.1779 14.174 21.0871 14.2908C20.9828 14.4249 20.7418 14.4876 20.2597 14.6132L17.0837 15.4402C16.8758 15.4944 16.7718 15.5215 16.6935 15.5798C16.6244 15.6313 16.5698 15.6998 16.5349 15.7786C16.4955 15.868 16.4922 15.9754 16.4857 16.1901L16.3861 19.4705C16.371 19.9685 16.3634 20.2175 16.2559 20.349C16.1623 20.4635 16.0228 20.5307 15.8749 20.5325C15.705 20.5345 15.5056 20.3852 15.1069 20.0865L12.4801 18.1191C12.3081 17.9903 12.2221 17.9259 12.1277 17.9011C12.0443 17.8791 11.9567 17.8791 11.8734 17.9011C11.7789 17.9259 11.6929 17.9903 11.521 18.1191L8.89418 20.0865C8.49542 20.3852 8.29604 20.5345 8.12619 20.5325C7.97829 20.5307 7.83877 20.4635 7.74515 20.349C7.63764 20.2175 7.63008 19.9685 7.61496 19.4705L7.51537 16.1901C7.50884 15.9754 7.50558 15.868 7.46612 15.7786C7.43129 15.6998 7.37667 15.6313 7.30756 15.5798C7.22927 15.5215 7.12529 15.4944 6.91734 15.4402L3.7414 14.6132C3.25928 14.4876 3.01821 14.4249 2.91393 14.2908C2.82312 14.174 2.78866 14.0231 2.81982 13.8785C2.8556 13.7124 3.04556 13.5513 3.42546 13.229L5.92804 11.1058C6.0919 10.9668 6.17384 10.8973 6.21906 10.8108C6.25898 10.7344 6.27847 10.649 6.27565 10.5628C6.27245 10.4653 6.22879 10.3671 6.14147 10.1707L4.80792 7.17203C4.60548 6.71681 4.50426 6.4892 4.54406 6.32406C4.57873 6.18027 4.67527 6.05921 4.80775 5.99342C4.95988 5.91786 5.20431 5.9659 5.69316 6.06197L8.91342 6.69481C9.12428 6.73625 9.22971 6.75697 9.32556 6.73837C9.41017 6.72195 9.4891 6.68394 9.55469 6.62803C9.629 6.56468 9.67853 6.46934 9.7776 6.27865L11.2906 3.36637Z" stroke="#151A1A" stroke-width="1.5" stroke-linecap="round" stroke-linejoin="round"/>
</svg>
