<svg width="16" height="16" viewBox="0 0 16 16" fill="none" xmlns="http://www.w3.org/2000/svg">
<g id="star-01">
<path id="Icon" d="M7.52047 2.30302C7.67412 1.99173 7.75095 1.83609 7.85525 1.78636C7.946 1.74309 8.05142 1.74309 8.14217 1.78636C8.24647 1.83609 8.3233 1.99173 8.47695 2.30302L9.93474 5.25634C9.9801 5.34824 10.0028 5.39419 10.0359 5.42986C10.0653 5.46145 10.1005 5.48705 10.1396 5.50523C10.1837 5.52576 10.2344 5.53317 10.3358 5.548L13.5967 6.02462C13.9401 6.07481 14.1118 6.0999 14.1912 6.18377C14.2604 6.25674 14.2929 6.35701 14.2797 6.45666C14.2646 6.5712 14.1403 6.69227 13.8917 6.9344L11.533 9.23176C11.4595 9.30338 11.4227 9.33918 11.399 9.38179C11.378 9.41951 11.3645 9.46096 11.3593 9.50382C11.3534 9.55223 11.3621 9.60281 11.3795 9.70397L11.936 12.9489C11.9947 13.2911 12.0241 13.4623 11.9689 13.5638C11.9209 13.6522 11.8356 13.7141 11.7367 13.7325C11.6231 13.7535 11.4694 13.6727 11.1621 13.5111L8.24695 11.978C8.15612 11.9303 8.11071 11.9064 8.06286 11.897C8.0205 11.8887 7.97692 11.8887 7.93456 11.897C7.88671 11.9064 7.8413 11.9303 7.75047 11.978L4.83531 13.5111C4.52797 13.6727 4.37431 13.7535 4.26068 13.7325C4.16182 13.7141 4.07651 13.6522 4.02852 13.5638C3.97336 13.4623 4.00271 13.2911 4.06141 12.9489L4.61796 9.70397C4.63531 9.60281 4.64398 9.55223 4.63811 9.50382C4.63291 9.46096 4.61944 9.41951 4.59844 9.38179C4.57471 9.33918 4.53795 9.30337 4.46442 9.23176L2.10574 6.9344C1.85714 6.69227 1.73284 6.5712 1.71772 6.45666C1.70456 6.35701 1.73707 6.25674 1.8062 6.18377C1.88565 6.0999 2.05735 6.07481 2.40073 6.02462L5.66157 5.548C5.76298 5.53317 5.81368 5.52576 5.85784 5.50523C5.89694 5.48705 5.93214 5.46145 5.96149 5.42986C5.99464 5.39419 6.01732 5.34824 6.06268 5.25634L7.52047 2.30302Z" stroke="#727776" stroke-width="1.5" stroke-linecap="round" stroke-linejoin="round"/>
<path id="Icon_2" d="M7.52047 2.30302C7.67412 1.99173 7.75095 1.83609 7.85525 1.78636C7.946 1.74309 8.05142 1.74309 8.14217 1.78636C8.24647 1.83609 8.3233 1.99173 8.47695 2.30302L9.93474 5.25634C9.9801 5.34824 10.0028 5.39419 10.0359 5.42986C10.0653 5.46145 10.1005 5.48705 10.1396 5.50523C10.1837 5.52576 10.2344 5.53317 10.3358 5.548L13.5967 6.02462C13.9401 6.07481 14.1118 6.0999 14.1912 6.18377C14.2604 6.25674 14.2929 6.35701 14.2797 6.45666C14.2646 6.5712 14.1403 6.69227 13.8917 6.9344L11.533 9.23176C11.4595 9.30338 11.4227 9.33918 11.399 9.38179C11.378 9.41951 11.3645 9.46096 11.3593 9.50382C11.3534 9.55223 11.3621 9.60281 11.3795 9.70397L11.936 12.9489C11.9947 13.2911 12.0241 13.4623 11.9689 13.5638C11.9209 13.6522 11.8356 13.7141 11.7367 13.7325C11.6231 13.7535 11.4694 13.6727 11.1621 13.5111L8.24695 11.978C8.15612 11.9303 8.11071 11.9064 8.06286 11.897C8.0205 11.8887 7.97692 11.8887 7.93456 11.897C7.88671 11.9064 7.8413 11.9303 7.75047 11.978L4.83531 13.5111C4.52798 13.6727 4.37431 13.7535 4.26068 13.7325C4.16182 13.7141 4.07651 13.6522 4.02852 13.5638C3.97336 13.4623 4.00271 13.2911 4.06141 12.9489L4.61796 9.70397C4.63531 9.60281 4.64398 9.55223 4.63811 9.50382C4.63291 9.46096 4.61944 9.41951 4.59844 9.38179C4.57471 9.33918 4.53795 9.30337 4.46442 9.23176L2.10574 6.9344C1.85714 6.69227 1.73284 6.5712 1.71772 6.45666C1.70456 6.35701 1.73707 6.25674 1.8062 6.18377C1.88565 6.0999 2.05735 6.07481 2.40073 6.02462L5.66157 5.548C5.76298 5.53317 5.81368 5.52576 5.85784 5.50523C5.89694 5.48705 5.93214 5.46145 5.96149 5.42986C5.99464 5.39419 6.01732 5.34824 6.06268 5.25634L7.52047 2.30302Z" fill="#2ABCA0" stroke="#2ABCA0" stroke-width="1.5" stroke-linecap="round" stroke-linejoin="round"/>
</g>
</svg>
