<svg width="24" height="24" viewBox="0 0 24 24" fill="none" xmlns="http://www.w3.org/2000/svg">
<path d="M11.3055 3.20693C11.533 2.81107 11.6467 2.61315 11.7954 2.54681C11.925 2.48895 12.0732 2.48895 12.2028 2.54681C12.3515 2.61315 12.4652 2.81107 12.6927 3.20693L14.6479 6.60925C14.7321 6.75579 14.7742 6.82906 14.8332 6.88231C14.8855 6.92942 14.9471 6.96498 15.014 6.98666C15.0896 7.01117 15.1741 7.011 15.3431 7.01065L19.2672 7.00272C19.7238 7.00179 19.9521 7.00133 20.0838 7.09691C20.1988 7.18028 20.2729 7.30858 20.2876 7.4498C20.3045 7.61171 20.1899 7.80918 19.9608 8.20412L17.9919 11.5985C17.9071 11.7447 17.8647 11.8178 17.8481 11.8955C17.8335 11.9643 17.8335 12.0355 17.8481 12.1043C17.8647 12.182 17.9071 12.2551 17.9919 12.4013L19.9608 15.7957C20.1899 16.1906 20.3045 16.3881 20.2876 16.55C20.2729 16.6912 20.1988 16.8195 20.0838 16.9029C19.9521 16.9985 19.7238 16.998 19.2672 16.9971L15.3431 16.9891C15.1741 16.9888 15.0896 16.9886 15.014 17.0131C14.9471 17.0348 14.8855 17.0704 14.8332 17.1175C14.7742 17.1707 14.7321 17.244 14.6479 17.3905L12.6927 20.7929C12.4652 21.1887 12.3515 21.3867 12.2028 21.453C12.0732 21.5108 11.925 21.5108 11.7954 21.453C11.6467 21.3867 11.533 21.1887 11.3055 20.7929L9.35031 17.3905C9.2661 17.244 9.22399 17.1707 9.16495 17.1175C9.11272 17.0704 9.05113 17.0348 8.98421 17.0131C8.90858 16.9886 8.82407 16.9888 8.65506 16.9891L4.73098 16.9971C4.27442 16.998 4.04614 16.9985 3.91435 16.9029C3.79942 16.8195 3.72534 16.6912 3.71062 16.55C3.69373 16.3881 3.80827 16.1906 4.03735 15.7957L6.00627 12.4013C6.09107 12.2551 6.13347 12.182 6.15006 12.1043C6.16474 12.0355 6.16474 11.9643 6.15006 11.8955C6.13347 11.8178 6.09107 11.7447 6.00627 11.5985L4.03735 8.20411C3.80827 7.80918 3.69373 7.61171 3.71062 7.4498C3.72534 7.30858 3.79942 7.18028 3.91435 7.09691C4.04614 7.00133 4.27442 7.00179 4.73098 7.00272L8.65506 7.01065C8.82407 7.011 8.90858 7.01117 8.98421 6.98666C9.05113 6.96498 9.11272 6.92942 9.16495 6.88231C9.22399 6.82906 9.2661 6.75579 9.35031 6.60925L11.3055 3.20693Z" stroke="#151A1A" stroke-width="1.5" stroke-linecap="round" stroke-linejoin="round"/>
</svg>
