<svg width="16" height="17" viewBox="0 0 16 17" fill="none" xmlns="http://www.w3.org/2000/svg">
<g id="star">
<path id="Icon" d="M7.10199 3.72093C7.46883 2.97776 8.52857 2.97776 8.89541 3.72093L9.82625 5.60672C9.97179 5.90157 10.253 6.10603 10.5783 6.15358L12.6616 6.45808C13.4815 6.57792 13.8083 7.58576 13.2147 8.16393L11.7088 9.63064C11.4729 9.86038 11.3653 10.1915 11.4209 10.516L11.7761 12.5869C11.9162 13.4039 11.0587 14.0269 10.3251 13.641L8.46415 12.6624C8.17277 12.5092 7.82463 12.5092 7.53325 12.6624L5.67233 13.641C4.9387 14.0269 4.08115 13.4039 4.22127 12.5869L4.57645 10.516C4.63211 10.1915 4.52445 9.86038 4.28858 9.63064L2.78271 8.16392C2.18912 7.58576 2.5159 6.57792 3.33581 6.45808L5.41906 6.15358C5.74442 6.10603 6.0256 5.90157 6.17114 5.60672L7.10199 3.72093Z" fill="#2ABCA0"/>
</g>
</svg>
