<svg width="141" height="140" viewBox="0 0 141 140" fill="none" xmlns="http://www.w3.org/2000/svg">
<g id="Task_empty">
<ellipse id="Ellipse 1183" opacity="0.1" cx="70.5" cy="135.8" rx="70" ry="4.2" fill="#595C5B"/>
<path id="Union" fill-rule="evenodd" clip-rule="evenodd" d="M27.8445 23.9899C26.906 22.1819 24.6796 21.477 22.8716 22.4155C21.0635 23.354 20.3586 25.5804 21.2971 27.3884L24.7927 34.123C25.7312 35.931 27.9577 36.6359 29.7657 35.6974C31.5737 34.759 32.2786 32.5325 31.3401 30.7245L27.8445 23.9899ZM24.1615 24.9007C24.597 24.6746 25.1333 24.8444 25.3593 25.2799L28.855 32.0145C29.081 32.45 28.9112 32.9862 28.4757 33.2123C28.0402 33.4383 27.504 33.2685 27.2779 32.833L23.7823 26.0985C23.5562 25.663 23.726 25.1267 24.1615 24.9007ZM37.1074 40.0879C32.4682 40.0879 28.7074 43.8488 28.7074 48.4879V107.433C28.7074 112.072 32.4682 115.833 37.1074 115.833H93.1073C97.7465 115.833 101.507 112.072 101.507 107.433V98.3412C95.6489 94.9523 91.7073 88.6181 91.7073 81.3633C91.7073 74.1086 95.6489 67.7744 101.507 64.3855V48.4879C101.507 43.8487 97.7465 40.0879 93.1073 40.0879H87.3626V42.2116C87.3626 46.0776 84.2286 49.2116 80.3626 49.2116H52.6523C48.7863 49.2116 45.6523 46.0776 45.6523 42.2116V40.0879H37.1074ZM104.307 63.0503V48.4879C104.307 42.3023 99.2929 37.2879 93.1073 37.2879H74.7052C73.7544 33.6488 70.4445 30.9633 66.5074 30.9633C62.5703 30.9633 59.2605 33.6488 58.3097 37.2879H37.1074C30.9218 37.2879 25.9074 42.3024 25.9074 48.4879V107.433C25.9074 113.618 30.9218 118.633 37.1074 118.633H93.1073C99.2929 118.633 104.307 113.618 104.307 107.433V99.6764C106.481 100.508 108.841 100.963 111.307 100.963C122.132 100.963 130.907 92.1881 130.907 81.3633C130.907 70.5385 122.132 61.7633 111.307 61.7633C108.841 61.7633 106.481 62.2188 104.307 63.0503ZM10.3903 34.9923C11.3014 33.1704 13.517 32.432 15.3389 33.3431L22.1254 36.7368C23.9474 37.6479 24.6858 39.8635 23.7747 41.6854C22.8636 43.5074 20.648 44.2458 18.8261 43.3347L12.0395 39.941C10.2176 39.0299 9.4792 36.8143 10.3903 34.9923ZM14.0866 35.8474C13.6477 35.628 13.1141 35.8058 12.8946 36.2447C12.6752 36.6835 12.853 37.2172 13.2919 37.4366L20.0784 40.8303C20.5172 41.0498 21.0509 40.8719 21.2704 40.4331C21.4898 39.9942 21.3119 39.4606 20.8731 39.2411L14.0866 35.8474ZM58.59 68.2561C58.59 66.3231 60.157 64.7561 62.09 64.7561H85.89C87.823 64.7561 89.39 66.3231 89.39 68.2561C89.39 70.1891 87.823 71.7561 85.89 71.7561H62.09C60.157 71.7561 58.59 70.1891 58.59 68.2561ZM62.09 81.1459C60.157 81.1459 58.59 82.713 58.59 84.6459C58.59 86.5789 60.157 88.1459 62.09 88.1459H85.89C87.823 88.1459 89.39 86.5789 89.39 84.6459C89.39 82.713 87.823 81.1459 85.89 81.1459H62.09ZM61.39 84.6459C61.39 84.2593 61.7034 83.9459 62.09 83.9459H85.89C86.2766 83.9459 86.59 84.2593 86.59 84.6459C86.59 85.0325 86.2766 85.3459 85.89 85.3459H62.09C61.7034 85.3459 61.39 85.0325 61.39 84.6459ZM58.59 101.784C58.59 99.8506 60.157 98.2836 62.09 98.2836H85.89C87.823 98.2836 89.39 99.8506 89.39 101.784C89.39 103.717 87.823 105.284 85.89 105.284H62.09C60.157 105.284 58.59 103.717 58.59 101.784ZM62.09 101.084C61.7034 101.084 61.39 101.397 61.39 101.784C61.39 102.17 61.7034 102.484 62.09 102.484H85.89C86.2766 102.484 86.59 102.17 86.59 101.784C86.59 101.397 86.2766 101.084 85.89 101.084H62.09ZM42.948 67.001C42.948 64.6814 44.8284 62.801 47.148 62.801H49.3687C51.6883 62.801 53.5687 64.6814 53.5687 67.001V69.2217C53.5687 71.5413 51.6883 73.4217 49.3687 73.4217H47.148C44.8284 73.4217 42.948 71.5413 42.948 69.2217V67.001ZM47.148 79.1909C44.8284 79.1909 42.948 81.0713 42.948 83.3909V85.6116C42.948 87.9312 44.8284 89.8116 47.148 89.8116H49.3687C51.6883 89.8116 53.5687 87.9312 53.5687 85.6116V83.3909C53.5687 81.0713 51.6883 79.1909 49.3687 79.1909H47.148ZM45.748 83.3909C45.748 82.6177 46.3748 81.9909 47.148 81.9909H49.3687C50.1419 81.9909 50.7687 82.6177 50.7687 83.3909V85.6116C50.7687 86.3848 50.1419 87.0116 49.3687 87.0116H47.148C46.3748 87.0116 45.748 86.3848 45.748 85.6116V83.3909ZM42.948 100.529C42.948 98.209 44.8284 96.3286 47.148 96.3286H49.3687C51.6883 96.3286 53.5687 98.209 53.5687 100.529V102.749C53.5687 105.069 51.6883 106.949 49.3687 106.949H47.148C44.8284 106.949 42.948 105.069 42.948 102.749V100.529ZM47.148 99.1286C46.3748 99.1286 45.748 99.7554 45.748 100.529V102.749C45.748 103.522 46.3748 104.149 47.148 104.149H49.3687C50.1419 104.149 50.7687 103.522 50.7687 102.749V100.529C50.7687 99.7554 50.1419 99.1286 49.3687 99.1286H47.148ZM94.5073 81.3633C94.5073 72.0849 102.029 64.5633 111.307 64.5633C120.586 64.5633 128.107 72.0849 128.107 81.3633C128.107 90.6417 120.586 98.1633 111.307 98.1633C102.029 98.1633 94.5073 90.6417 94.5073 81.3633ZM107.807 72.2633C107.807 70.3303 109.374 68.7633 111.307 68.7633C113.24 68.7633 114.807 70.3303 114.807 72.2633V80.6633C114.807 82.5963 113.24 84.1633 111.307 84.1633C109.374 84.1633 107.807 82.5963 107.807 80.6633V72.2633ZM111.307 71.5633C110.921 71.5633 110.607 71.8767 110.607 72.2633V80.6633C110.607 81.0499 110.921 81.3633 111.307 81.3633C111.694 81.3633 112.007 81.0499 112.007 80.6633V72.2633C112.007 71.8767 111.694 71.5633 111.307 71.5633ZM111.307 93.9633C109.374 93.9633 107.807 92.3963 107.807 90.4633C107.807 88.5303 109.374 86.9633 111.307 86.9633C113.24 86.9633 114.807 88.5303 114.807 90.4633C114.807 92.3963 113.24 93.9633 111.307 93.9633ZM110.607 90.4633C110.607 90.8499 110.921 91.1633 111.307 91.1633C111.694 91.1633 112.007 90.8499 112.007 90.4633C112.007 90.0767 111.694 89.7633 111.307 89.7633C110.921 89.7633 110.607 90.0767 110.607 90.4633Z" fill="#727776"/>
</g>
</svg>
