<svg width="41" height="40" viewBox="0 0 41 40" fill="none" xmlns="http://www.w3.org/2000/svg">
<g id="Tooth">
<path id="Vector" d="M16.2017 27.4809C15.4961 29.0156 15.2668 30.7267 14.667 32.2967C14.3184 33.6022 13.111 33.2617 12.3209 32.526C7.51203 27.1674 3.8693 14.1768 9.56901 8.14729C12.4826 4.90529 15.2501 9.44792 20.2501 9.44793C25.2501 9.44793 28.0543 4.93524 30.9489 8.14729C36.6511 14.2231 32.9039 27.1623 28.0735 32.526C27.3298 33.3292 26.0459 33.5674 25.7098 32.2967C25.11 30.7267 24.8983 29.0156 24.1927 27.4809C22.6222 23.7007 17.8198 23.849 16.2017 27.4809Z" stroke="#3F4040" stroke-width="1.5" stroke-miterlimit="10"/>
<path id="Vector_2" d="M28.582 10C30.2487 10.8333 30.2487 12.5 30.2487 13.3333" stroke="#22202A" stroke-width="1.5" stroke-linecap="round"/>
</g>
</svg>
